<?xml version="1.0" standalone="no"?>
<!DOCTYPE svg PUBLIC "-//W3C//DTD SVG 20010904//EN"
 "http://www.w3.org/TR/2001/REC-SVG-20010904/DTD/svg10.dtd">
<svg version="1.0" xmlns="http://www.w3.org/2000/svg"
 width="720.000000pt" height="720.000000pt" viewBox="0 0 720.000000 720.000000"
 preserveAspectRatio="xMidYMid meet">
<metadata>
Created by potrace 1.14, written by Peter Selinger 2001-2017
</metadata>
<g transform="translate(0.000000,720.000000) scale(0.100000,-0.100000)"
fill="#000000" stroke="none">
<path d="M2664 5506 c-50 -22 -74 -54 -74 -101 0 -78 88 -177 240 -267 24 -14
155 -68 165 -68 3 0 -8 27 -25 60 -55 108 -68 203 -45 316 7 30 6 31 -59 52
-75 25 -156 28 -202 8z"/>
<path d="M2524 5296 c-12 -49 2 -198 25 -264 27 -80 51 -105 121 -131 73 -26
735 -241 743 -241 3 0 4 30 0 68 -4 49 -13 77 -32 104 -31 44 -10 35 -251 113
-183 59 -302 104 -360 137 -109 60 -179 125 -217 199 l-22 43 -7 -28z"/>
<path d="M1880 4982 c0 -17 415 -1261 431 -1294 61 -121 140 -163 469 -250
413 -108 575 -196 692 -374 23 -35 43 -62 45 -60 2 2 -10 321 -27 710 -24 564
-33 712 -45 735 -21 42 -64 69 -152 96 -43 13 -163 50 -268 83 -104 33 -399
126 -655 207 -256 80 -471 148 -477 150 -7 2 -13 1 -13 -3z"/>
<path d="M2962 2560 l-1 -140 28 0 c28 0 47 22 36 40 -3 5 -1 11 4 14 5 4 19
-7 31 -24 17 -23 29 -30 56 -30 l35 0 -31 44 c-35 53 -36 61 -10 104 26 42 25
42 -9 42 -20 0 -36 -8 -50 -27 l-20 -28 -1 73 0 72 -34 0 -33 0 -1 -140z"/>
<path d="M3142 2658 c2 -36 7 -44 26 -46 20 -3 22 1 22 42 0 43 -2 46 -26 46
-23 0 -25 -3 -22 -42z"/>
<path d="M4120 2649 l0 -51 -40 7 c-34 6 -43 3 -65 -19 -32 -32 -35 -101 -6
-137 16 -19 29 -23 95 -25 l76 -3 0 133 c0 113 -2 135 -16 140 -37 14 -44 7
-44 -45z m-9 -115 c17 -21 0 -49 -31 -49 -31 0 -48 28 -31 49 8 9 21 16 31 16
10 0 23 -7 31 -16z"/>
<path d="M4880 2685 c-26 -31 13 -82 44 -56 19 16 21 42 4 59 -16 16 -33 15
-48 -3z"/>
<path d="M1910 2555 l0 -135 30 0 30 0 0 66 c0 36 4 63 9 60 4 -3 14 -33 21
-66 12 -59 13 -60 46 -60 35 0 38 4 50 75 12 74 23 73 24 -2 l0 -73 36 0 37 0
-7 46 c-3 26 -6 87 -6 135 l0 89 -54 0 -54 0 -13 -72 -12 -73 -18 55 c-10 30
-18 63 -18 73 -1 14 -10 17 -51 17 l-50 0 0 -135z"/>
<path d="M3493 2674 c-18 -9 -36 -28 -42 -45 -19 -54 12 -94 82 -108 15 -3 29
-11 30 -16 3 -15 -52 -18 -69 -4 -11 9 -18 8 -34 -6 -30 -27 -25 -41 20 -59
52 -21 68 -20 108 4 85 52 50 150 -54 150 -15 0 -24 6 -24 15 0 17 46 21 70 5
16 -10 50 14 50 35 0 15 -59 45 -87 45 -10 0 -32 -8 -50 -16z"/>
<path d="M4511 2675 c-23 -11 -31 -20 -27 -31 3 -9 6 -63 6 -120 l0 -104 36 0
c36 0 36 0 30 34 -6 33 -5 34 33 40 27 4 47 16 65 37 43 51 29 111 -34 144
-36 19 -65 18 -109 0z m97 -82 c2 -24 -1 -33 -17 -38 -29 -9 -41 1 -41 34 0
34 8 43 35 39 14 -2 21 -12 23 -35z"/>
<path d="M3680 2630 c0 -11 -7 -20 -15 -20 -10 0 -15 -10 -15 -30 0 -16 5 -30
10 -30 6 0 10 -22 10 -49 0 -32 6 -55 16 -65 33 -33 112 -8 100 32 -5 14 -13
18 -31 14 -23 -4 -25 -1 -25 32 0 32 3 36 25 36 21 0 25 5 25 30 0 23 -4 30
-20 30 -13 0 -20 7 -20 20 0 16 -7 20 -30 20 -23 0 -30 -4 -30 -20z"/>
<path d="M5173 2631 c-3 -11 -13 -21 -23 -24 -13 -3 -16 -11 -13 -31 3 -14 9
-26 14 -26 5 0 9 -21 9 -47 0 -55 6 -68 38 -78 24 -7 82 11 82 25 0 25 -13 37
-36 32 -22 -4 -24 -1 -24 32 0 32 3 36 25 36 21 0 25 5 25 30 0 23 -4 30 -20
30 -13 0 -20 7 -20 20 0 27 -50 28 -57 1z"/>
<path d="M2237 2591 c-32 -22 -37 -31 -37 -77 0 -65 59 -111 109 -84 14 7 21
7 21 0 0 -5 14 -10 31 -10 l32 0 -7 46 c-3 26 -6 68 -6 94 l0 48 -60 -1 c-37
0 -69 -6 -83 -16z m78 -76 c0 -25 -4 -30 -24 -30 -32 0 -49 28 -31 50 7 9 23
15 34 13 16 -2 21 -10 21 -33z"/>
<path d="M2390 2607 c0 -3 16 -42 35 -87 44 -102 44 -114 5 -108 -30 5 -40 -6
-40 -42 0 -23 45 -35 80 -20 35 14 53 48 80 145 12 44 24 88 26 98 4 14 -1 17
-29 17 -32 0 -35 -2 -41 -39 -9 -56 -22 -58 -38 -9 -13 37 -19 43 -46 46 -18
2 -32 1 -32 -1z"/>
<path d="M2623 2597 c-63 -28 -59 -142 6 -165 14 -5 65 -10 114 -11 l87 -2 0
50 c0 62 7 81 30 81 23 0 30 -19 30 -81 0 -48 1 -49 30 -49 l30 0 0 79 c0 98
-7 105 -105 107 l-72 2 3 -29 c2 -16 0 -46 -5 -67 -8 -34 -9 -32 -10 29 l-1
67 -58 -1 c-31 0 -67 -4 -79 -10z m72 -82 c0 -25 -4 -30 -24 -30 -32 0 -49 28
-31 50 7 9 23 15 34 13 16 -2 21 -10 21 -33z"/>
<path d="M3223 2600 c-58 -24 -49 -91 16 -108 l36 -10 -36 -1 c-43 -1 -72 -27
-48 -42 47 -30 104 -20 129 24 20 35 6 59 -43 71 -48 12 -48 30 -1 23 26 -4
37 -2 41 9 3 9 2 19 -3 24 -15 15 -67 20 -91 10z"/>
<path d="M3799 2588 c0 -13 -2 -34 -5 -47 -6 -34 14 -99 34 -110 9 -5 46 -8
82 -7 l65 1 3 93 3 93 -32 -3 c-30 -3 -32 -5 -35 -50 -3 -56 -9 -68 -35 -68
-20 0 -22 7 -23 75 -1 36 -4 40 -28 43 -23 3 -28 -1 -29 -20z"/>
<path d="M4210 2558 c36 -90 50 -130 50 -140 0 -6 -13 -8 -30 -6 -30 5 -40 -6
-40 -42 0 -23 45 -35 80 -20 35 14 53 48 80 145 12 44 24 88 27 98 4 16 0 18
-28 15 -28 -3 -34 -8 -42 -38 -13 -54 -23 -56 -39 -8 -13 37 -19 43 -46 46
l-32 3 20 -53z"/>
<path d="M4740 2603 c-91 -33 -75 -164 22 -180 32 -5 41 -1 68 25 30 30 39 76
24 117 -12 31 -75 52 -114 38z m59 -72 c13 -24 -8 -55 -34 -50 -28 6 -42 34
-26 53 18 22 48 20 60 -3z"/>
<path d="M4872 2518 l3 -93 63 -3 62 -3 0 53 c0 61 10 81 36 76 16 -3 20 -14
22 -66 3 -61 3 -62 32 -62 l30 0 0 78 c0 105 -4 108 -143 110 l-108 2 3 -92z"/>
<path d="M2310 1954 c0 -3 11 -22 25 -42 14 -21 25 -51 25 -69 0 -18 5 -33 10
-33 6 0 10 12 10 28 0 15 6 36 13 47 46 68 50 75 34 75 -8 0 -24 -14 -35 -32
l-21 -32 -18 32 c-15 27 -43 44 -43 26z"/>
<path d="M2842 1948 c-7 -7 -12 -17 -12 -24 0 -7 -6 -15 -12 -18 -10 -5 -10
-7 0 -12 6 -3 12 -23 12 -45 0 -21 5 -39 10 -39 6 0 10 18 10 40 0 29 4 40 15
40 8 0 15 5 15 10 0 6 -7 10 -15 10 -22 0 -18 21 5 27 11 3 17 9 14 14 -7 13
-28 11 -42 -3z"/>
<path d="M3490 1950 c0 -5 5 -10 10 -10 6 0 10 5 10 10 0 6 -4 10 -10 10 -5 0
-10 -4 -10 -10z"/>
<path d="M3680 1950 c0 -5 5 -10 10 -10 6 0 10 5 10 10 0 6 -4 10 -10 10 -5 0
-10 -4 -10 -10z"/>
<path d="M4390 1885 c0 -43 4 -75 10 -75 6 0 10 15 10 34 0 67 51 72 54 5 2
-49 26 -50 26 -1 0 49 -23 76 -56 68 -21 -6 -24 -3 -24 19 0 14 -4 25 -10 25
-6 0 -10 -32 -10 -75z"/>
<path d="M4840 1934 c0 -21 -4 -24 -20 -19 -33 11 -60 -12 -60 -50 0 -39 11
-48 62 -51 l38 -2 0 74 c0 43 -4 74 -10 74 -5 0 -10 -12 -10 -26z m-6 -57 c8
-12 7 -21 -5 -32 -21 -21 -49 -9 -49 20 0 36 34 44 54 12z"/>
<path d="M3040 1936 c0 -8 -6 -17 -12 -19 -10 -4 -10 -8 -1 -14 6 -4 13 -23
15 -42 3 -34 30 -62 45 -47 4 4 0 12 -10 17 -22 13 -24 69 -2 69 8 0 15 5 15
10 0 6 -7 10 -15 10 -8 0 -15 7 -15 15 0 8 -4 15 -10 15 -5 0 -10 -6 -10 -14z"/>
<path d="M2458 1909 c-12 -6 -18 -22 -18 -45 0 -46 36 -66 75 -40 30 20 32 49
5 76 -22 22 -37 24 -62 9z m56 -32 c8 -12 7 -21 -5 -32 -21 -21 -49 -9 -49 20
0 36 34 44 54 12z"/>
<path d="M2560 1883 c0 -53 12 -66 59 -69 l41 -2 0 54 c0 30 -4 54 -10 54 -5
0 -10 -15 -10 -34 0 -41 -23 -65 -45 -46 -8 7 -15 28 -15 46 0 19 -4 34 -10
34 -5 0 -10 -17 -10 -37z"/>
<path d="M2690 1865 c0 -30 5 -55 10 -55 6 0 10 13 10 29 0 42 10 61 31 61 10
0 19 5 19 10 0 6 -16 10 -35 10 l-35 0 0 -55z"/>
<path d="M2900 1883 c0 -53 12 -66 59 -69 l41 -2 0 54 c0 30 -4 54 -10 54 -5
0 -10 -15 -10 -34 0 -41 -23 -65 -45 -46 -8 7 -15 28 -15 46 0 19 -4 34 -10
34 -5 0 -10 -17 -10 -37z"/>
<path d="M3110 1883 c0 -53 12 -66 59 -69 l41 -2 0 54 c0 30 -4 54 -10 54 -5
0 -10 -15 -10 -34 0 -41 -23 -65 -45 -46 -8 7 -15 28 -15 46 0 19 -4 34 -10
34 -5 0 -10 -17 -10 -37z"/>
<path d="M3240 1865 c0 -64 17 -74 22 -13 2 34 7 44 23 46 41 8 39 22 -3 22
l-42 0 0 -55z"/>
<path d="M3346 1904 c-19 -18 -21 -65 -4 -82 15 -15 64 -16 73 -2 4 6 -6 10
-24 10 -16 0 -33 5 -36 10 -4 6 10 10 34 10 33 0 41 4 41 18 0 22 -30 52 -53
52 -8 0 -23 -7 -31 -16z m54 -19 c11 -13 8 -15 -19 -15 -31 0 -42 14 -18 23
20 9 24 8 37 -8z"/>
<path d="M3490 1865 c0 -30 5 -55 10 -55 6 0 10 25 10 55 0 30 -4 55 -10 55
-5 0 -10 -25 -10 -55z"/>
<path d="M3552 1908 c-22 -22 -14 -48 18 -54 17 -4 30 -11 30 -16 0 -6 -13 -8
-30 -4 -17 3 -30 1 -30 -5 0 -15 27 -22 55 -15 36 9 33 41 -5 55 -37 12 -41
35 -5 28 16 -3 24 0 22 7 -5 16 -40 19 -55 4z"/>
<path d="M3680 1865 c0 -30 5 -55 10 -55 6 0 10 25 10 55 0 30 -4 55 -10 55
-5 0 -10 -25 -10 -55z"/>
<path d="M3730 1863 c0 -29 5 -53 10 -53 6 0 10 15 10 34 0 19 7 39 16 47 14
11 18 10 30 -6 8 -10 14 -31 14 -47 0 -15 5 -28 10 -28 6 0 10 17 10 38 0 47
-22 69 -67 69 l-33 0 0 -54z"/>
<path d="M3901 1873 c13 -30 18 -57 14 -75 -11 -49 12 -30 35 30 13 31 27 61
32 67 12 13 10 25 -5 25 -7 0 -19 -17 -27 -37 l-14 -38 -14 38 c-8 20 -21 37
-28 37 -10 0 -8 -11 7 -47z"/>
<path d="M4028 1909 c-12 -6 -18 -22 -18 -45 0 -27 5 -37 25 -46 55 -25 103
52 53 86 -26 18 -36 19 -60 5z m51 -23 c16 -20 -4 -58 -27 -54 -21 4 -29 48
-10 59 18 12 24 11 37 -5z"/>
<path d="M4130 1883 c0 -53 12 -66 59 -69 l41 -2 0 54 c0 30 -4 54 -10 54 -5
0 -10 -15 -10 -34 0 -41 -23 -65 -45 -46 -8 7 -15 28 -15 46 0 19 -4 34 -10
34 -5 0 -10 -17 -10 -37z"/>
<path d="M4260 1865 c0 -65 17 -74 22 -12 2 35 7 43 26 45 35 5 26 22 -13 22
l-35 0 0 -55z"/>
<path d="M4522 1908 c-16 -16 -15 -73 1 -87 8 -6 30 -10 50 -9 l37 1 0 52 0
52 -38 1 c-21 1 -44 -4 -50 -10z m52 -14 c23 -9 20 -51 -4 -59 -27 -8 -40 1
-40 29 0 34 12 42 44 30z"/>
<path d="M4640 1864 c0 -30 5 -54 10 -54 6 0 10 15 10 34 0 41 23 65 45 46 8
-7 15 -28 15 -46 0 -19 5 -34 11 -34 12 0 7 85 -5 97 -4 4 -24 8 -46 9 l-40 2
0 -54z"/>
</g>
</svg>
